<svg xmlns="http://www.w3.org/2000/svg" width="1260" height="2170" viewBox="0 0 1260 2170">
<rect width="100%" height="100%" fill="#f5f5f5"/>
<rect x="10" y="10" width="400" height="290" fill="white" stroke="#ccc"/>
<image href="build-pipeline.png" x="20" y="20" width="380" height="230" preserveAspectRatio="xMidYMid meet"/>
<text x="22" y="280" font-family="Arial" font-size="18" fill="#111">build-pipeline</text>
<rect x="430" y="10" width="400" height="290" fill="white" stroke="#ccc"/>
<image href="conclusion-roadmap.png" x="440" y="20" width="380" height="230" preserveAspectRatio="xMidYMid meet"/>
<text x="442" y="280" font-family="Arial" font-size="18" fill="#111">conclusion-roadmap</text>
<rect x="850" y="10" width="400" height="290" fill="white" stroke="#ccc"/>
<image href="fs-device-path.png" x="860" y="20" width="380" height="230" preserveAspectRatio="xMidYMid meet"/>
<text x="862" y="280" font-family="Arial" font-size="18" fill="#111">fs-device-path</text>
<rect x="10" y="320" width="400" height="290" fill="white" stroke="#ccc"/>
<image href="mm-lifetime.png" x="20" y="330" width="380" height="230" preserveAspectRatio="xMidYMid meet"/>
<text x="22" y="590" font-family="Arial" font-size="18" fill="#111">mm-lifetime</text>
<rect x="430" y="320" width="400" height="290" fill="white" stroke="#ccc"/>
<image href="process-lifecycle.png" x="440" y="330" width="380" height="230" preserveAspectRatio="xMidYMid meet"/>
<text x="442" y="590" font-family="Arial" font-size="18" fill="#111">process-lifecycle</text>
<rect x="850" y="320" width="400" height="290" fill="white" stroke="#ccc"/>
<image href="process-scheduler.png" x="860" y="330" width="380" height="230" preserveAspectRatio="xMidYMid meet"/>
<text x="862" y="590" font-family="Arial" font-size="18" fill="#111">process-scheduler</text>
<rect x="10" y="630" width="400" height="290" fill="white" stroke="#ccc"/>
<image href="qemu-screenshot-temp.png" x="20" y="640" width="380" height="230" preserveAspectRatio="xMidYMid meet"/>
<text x="22" y="900" font-family="Arial" font-size="18" fill="#111">qemu-screenshot-temp</text>
<rect x="430" y="630" width="400" height="290" fill="white" stroke="#ccc"/>
<image href="refactor-highlight-map.png" x="440" y="640" width="380" height="230" preserveAspectRatio="xMidYMid meet"/>
<text x="442" y="900" font-family="Arial" font-size="18" fill="#111">refactor-highlight-map</text>
<rect x="850" y="630" width="400" height="290" fill="white" stroke="#ccc"/>
<image href="research-positioning.png" x="860" y="640" width="380" height="230" preserveAspectRatio="xMidYMid meet"/>
<text x="862" y="900" font-family="Arial" font-size="18" fill="#111">research-positioning</text>
<rect x="10" y="940" width="400" height="290" fill="white" stroke="#ccc"/>
<image href="signal-delivery.png" x="20" y="950" width="380" height="230" preserveAspectRatio="xMidYMid meet"/>
<text x="22" y="1210" font-family="Arial" font-size="18" fill="#111">signal-delivery</text>
<rect x="430" y="940" width="400" height="290" fill="white" stroke="#ccc"/>
<image href="syscall-path.png" x="440" y="950" width="380" height="230" preserveAspectRatio="xMidYMid meet"/>
<text x="442" y="1210" font-family="Arial" font-size="18" fill="#111">syscall-path</text>
<rect x="850" y="940" width="400" height="290" fill="white" stroke="#ccc"/>
<image href="system-architecture.png" x="860" y="950" width="380" height="230" preserveAspectRatio="xMidYMid meet"/>
<text x="862" y="1210" font-family="Arial" font-size="18" fill="#111">system-architecture</text>
<rect x="10" y="1250" width="400" height="290" fill="white" stroke="#ccc"/>
<image href="test-fork-flow.png" x="20" y="1260" width="380" height="230" preserveAspectRatio="xMidYMid meet"/>
<text x="22" y="1520" font-family="Arial" font-size="18" fill="#111">test-fork-flow</text>
<rect x="430" y="1250" width="400" height="290" fill="white" stroke="#ccc"/>
<image href="test-ls-cat-flow.png" x="440" y="1260" width="380" height="230" preserveAspectRatio="xMidYMid meet"/>
<text x="442" y="1520" font-family="Arial" font-size="18" fill="#111">test-ls-cat-flow</text>
<rect x="850" y="1250" width="400" height="290" fill="white" stroke="#ccc"/>
<image href="test-sig-flow.png" x="860" y="1260" width="380" height="230" preserveAspectRatio="xMidYMid meet"/>
<text x="862" y="1520" font-family="Arial" font-size="18" fill="#111">test-sig-flow</text>
<rect x="10" y="1560" width="400" height="290" fill="white" stroke="#ccc"/>
<image href="test-sigint-flow.png" x="20" y="1570" width="380" height="230" preserveAspectRatio="xMidYMid meet"/>
<text x="22" y="1830" font-family="Arial" font-size="18" fill="#111">test-sigint-flow</text>
<rect x="430" y="1560" width="400" height="290" fill="white" stroke="#ccc"/>
<image href="trap-dispatch.png" x="440" y="1570" width="380" height="230" preserveAspectRatio="xMidYMid meet"/>
<text x="442" y="1830" font-family="Arial" font-size="18" fill="#111">trap-dispatch</text>
<rect x="850" y="1560" width="400" height="290" fill="white" stroke="#ccc"/>
<image href="trap-flow.png" x="860" y="1570" width="380" height="230" preserveAspectRatio="xMidYMid meet"/>
<text x="862" y="1830" font-family="Arial" font-size="18" fill="#111">trap-flow</text>
<rect x="10" y="1870" width="400" height="290" fill="white" stroke="#ccc"/>
<image href="tty-shell-flow.png" x="20" y="1880" width="380" height="230" preserveAspectRatio="xMidYMid meet"/>
<text x="22" y="2140" font-family="Arial" font-size="18" fill="#111">tty-shell-flow</text>
<rect x="430" y="1870" width="400" height="290" fill="white" stroke="#ccc"/>
<image href="validation-matrix.png" x="440" y="1880" width="380" height="230" preserveAspectRatio="xMidYMid meet"/>
<text x="442" y="2140" font-family="Arial" font-size="18" fill="#111">validation-matrix</text>
<rect x="850" y="1870" width="400" height="290" fill="white" stroke="#ccc"/>
<image href="work-scope-map.png" x="860" y="1880" width="380" height="230" preserveAspectRatio="xMidYMid meet"/>
<text x="862" y="2140" font-family="Arial" font-size="18" fill="#111">work-scope-map</text>
</svg>
